<?xml version="1.0" encoding="UTF-8" standalone="no"?>
<svg width="84px" height="81px" viewBox="0 0 84 81" version="1.1" xmlns="http://www.w3.org/2000/svg" xmlns:xlink="http://www.w3.org/1999/xlink">
    <!-- Generator: Sketch 3.6.1 (26313) - http://www.bohemiancoding.com/sketch -->
    <title>Group 2</title>
    <desc>Created with Sketch.</desc>
    <defs></defs>
    <g id="Page-1" stroke="none" stroke-width="1" fill="none" fill-rule="evenodd">
        <g id="Group-2" transform="translate(1.000000, 1.000000)">
            <circle id="Oval-1" stroke="#000000" cx="21.5" cy="21.5" r="21.5"></circle>
            <circle id="Oval-1" stroke="#000000" cx="21.5" cy="21.5" r="16.5"></circle>
            <g id="click" transform="translate(9.000000, 10.000000)">
                <circle id="Oval-1" stroke="#000000" cx="12" cy="12" r="12"></circle>
                <g id="Group" transform="translate(7.000000, 7.000000)">
                    <path d="M44.2,62.8 C41.3,62.8 38.3,62.2 35.4,60.8 L5.1,46.5 C3.3,45.6 1.9,44.1 1.2,42.2 C0.6,40.3 0.7,38.2 1.5,36.4 C1.6,36.1 1.9,35.8 2.3,35.6 C5.4,33.7 11.6,32.8 15.2,34.4 L1.2,11.9 C0.1,10.2 -0.2,8.1 0.2,6.2 C0.6,4.3 1.9,2.5 3.6,1.5 C7.1,-0.6 11.9,0.4 14,4 L20.2,14.1 C20.7,13.6 21.3,13 21.9,12.7 C24.2,11.3 27,11.2 29.2,12.4 C29.8,11.2 30.7,10.3 31.9,9.5 C34.2,8.1 37,8 39.2,9.2 C39.8,8 40.7,7.1 41.9,6.3 C43.7,5.2 45.9,4.9 47.9,5.4 C49.8,5.9 51.4,7.1 52.4,8.8 L63.5,29 C68.9,38.9 65.4,49.6 59.5,55.9 C55.3,60.3 49.8,62.8 44.2,62.8 Z M4.8,40.9 C5.1,41.9 5.9,42.6 6.7,43 L37,57.3 C45.2,61.2 52.7,57.6 57,53.1 C61.9,47.8 65,38.8 60.4,30.6 L49.2,10.3 C48.8,9.5 48,8.9 47.1,8.7 C46,8.4 45,8.6 44,9.1 C42.9,9.7 42.3,10.8 42.2,12.1 C42.1,12.9 41.7,13.5 40.9,13.8 C40.1,14 39.4,13.8 38.9,13.3 C37.7,11.9 35.6,11.6 34,12.5 C32.9,13.1 32.3,14.2 32.2,15.5 C32.1,16.3 31.7,16.9 30.9,17.2 C30.1,17.4 29.4,17.2 28.9,16.7 C27.7,15.3 25.6,15 24,15.9 C23.1,16.4 22.5,17.3 22.3,18.4 C22.1,19.2 21.5,19.7 20.8,19.9 C20,20 19.3,19.7 18.9,19 L10.9,6.1 C9.8,4.3 7.5,3.7 5.6,4.9 C4.7,5.4 4.1,6.3 3.9,7.3 C3.7,8.3 3.8,9.3 4.3,10.2 L21.6,38.1 C22,38.9 21.9,39.7 21.4,40.4 C20.9,41 19.9,41.3 19.1,40.8 L13.7,37.7 C11.5,36.9 7.1,37.3 4.7,38.5 C4.5,39.3 4.5,40.1 4.8,40.9 Z" id="Shape" fill="#000000"></path>
                    <rect id="Rectangle-1" fill="#FFFFFF" transform="translate(14.214686, 18.910464) rotate(-32.000000) translate(-14.214686, -18.910464) " x="10.3107377" y="11.5285434" width="7.80789632" height="14.7638414"></rect>
                </g>
            </g>
        </g>
    </g>
</svg>